<svg xmlns="http://www.w3.org/2000/svg" width="75" height="65" viewBox="0 0 75 65">
  <defs>
    <style>
      .cls-1 {
        fill: #121c26;
        fill-rule: evenodd;
        opacity: 0.2;
      }
    </style>
  </defs>
  <path class="cls-1" d="M935.733,12530s-7.589,18-18.75,26.8c0,0-10.743,11.6-32.761,16.1,0,0-2.314.5-2.472,1.6,0,0,.187,1.1,2.06,1.2h3.5s17.459,0,35.44-17.1c0,0,14.062-13,15.247-28.2,0,0-.156-1.3-1.03-1.4C936.97,12529,936.334,12528.9,935.733,12530Zm-43.887,26.4a2.849,2.849,0,0,0-2.678.6s-6.829,4.1-25.138,22.2a5.079,5.079,0,0,0-1.03,1s-0.092.3,1.03,0.4c0,0,8.485.6,19.986,5.6,0,0,17.5,7.4,19.575,7.7,0,0,2.109.5,2.266-1a2.157,2.157,0,0,0-1.442-1.6s-16.681-11.3-35.852-12.9c0,0,18.718-14.6,22.871-20A1.566,1.566,0,0,0,891.846,12556.4Z" transform="translate(-863 -12529)"/>
</svg>
