<svg xmlns="http://www.w3.org/2000/svg" width="223" height="221" viewBox="0 0 223 221">
  <defs>
    <style>
      .cls-1 {
        fill: #121c26;
        fill-rule: evenodd;
        opacity: 0.1;
      }
    </style>
  </defs>
  <path id="Ellipse_10_copy_29" data-name="Ellipse 10 copy 29" class="cls-1" d="M1736.8,6999a3.205,3.205,0,1,1-3.21,3.2A3.2,3.2,0,0,1,1736.8,6999Zm0,11.31a3.19,3.19,0,1,1-3.21,3.19A3.194,3.194,0,0,1,1736.8,7010.31Zm0,11.28a3.205,3.205,0,1,1-3.21,3.21A3.205,3.205,0,0,1,1736.8,7021.59Zm0,11.32a3.185,3.185,0,1,1-3.21,3.18A3.186,3.186,0,0,1,1736.8,7032.91Zm0,11.25a3.2,3.2,0,1,1-3.21,3.2A3.2,3.2,0,0,1,1736.8,7044.16Zm0,11.31a3.2,3.2,0,1,1-3.21,3.2A3.2,3.2,0,0,1,1736.8,7055.47Zm0,11.31a3.19,3.19,0,1,1-3.21,3.19A3.194,3.194,0,0,1,1736.8,7066.78Zm0,11.28a3.205,3.205,0,1,1-3.21,3.21A3.205,3.205,0,0,1,1736.8,7078.06Zm0,11.31a3.19,3.19,0,1,1-3.21,3.19A3.194,3.194,0,0,1,1736.8,7089.37Zm0,11.29a3.185,3.185,0,1,1-3.21,3.18A3.186,3.186,0,0,1,1736.8,7100.66Zm0,11.31a3.185,3.185,0,1,1-3.21,3.19A3.194,3.194,0,0,1,1736.8,7111.97Zm0,11.28a3.185,3.185,0,1,1-3.21,3.19A3.194,3.194,0,0,1,1736.8,7123.25Zm0,11.28a3.205,3.205,0,1,1-3.21,3.2A3.2,3.2,0,0,1,1736.8,7134.53Zm0,11.31a3.19,3.19,0,1,1-3.21,3.19A3.194,3.194,0,0,1,1736.8,7145.84Zm0,11.29a3.2,3.2,0,1,1-3.21,3.2A3.2,3.2,0,0,1,1736.8,7157.13Zm0,11.31a3.2,3.2,0,1,1-3.21,3.2A3.2,3.2,0,0,1,1736.8,7168.44Zm0,11.28a3.185,3.185,0,1,1-3.21,3.19A3.194,3.194,0,0,1,1736.8,7179.72Zm0,11.28a3.205,3.205,0,1,1-3.21,3.2A3.2,3.2,0,0,1,1736.8,7191Zm0,11.31a3.19,3.19,0,1,1-3.21,3.19A3.194,3.194,0,0,1,1736.8,7202.31Zm0,11.28a3.205,3.205,0,1,1-3.21,3.21A3.205,3.205,0,0,1,1736.8,7213.59ZM1724.77,6999a3.205,3.205,0,1,1-3.21,3.2A3.2,3.2,0,0,1,1724.77,6999Zm0,11.31a3.19,3.19,0,1,1-3.21,3.19A3.2,3.2,0,0,1,1724.77,7010.31Zm0,11.28a3.205,3.205,0,1,1-3.21,3.21A3.212,3.212,0,0,1,1724.77,7021.59Zm0,11.32a3.185,3.185,0,1,1-3.21,3.18A3.192,3.192,0,0,1,1724.77,7032.91Zm0,11.25a3.2,3.2,0,1,1-3.21,3.2A3.2,3.2,0,0,1,1724.77,7044.16Zm0,11.31a3.2,3.2,0,1,1-3.21,3.2A3.2,3.2,0,0,1,1724.77,7055.47Zm0,11.31a3.19,3.19,0,1,1-3.21,3.19A3.2,3.2,0,0,1,1724.77,7066.78Zm0,11.28a3.205,3.205,0,1,1-3.21,3.21A3.212,3.212,0,0,1,1724.77,7078.06Zm0,11.31a3.19,3.19,0,1,1-3.21,3.19A3.2,3.2,0,0,1,1724.77,7089.37Zm0,11.29a3.185,3.185,0,1,1-3.21,3.18A3.192,3.192,0,0,1,1724.77,7100.66Zm0,11.31a3.185,3.185,0,1,1-3.21,3.19A3.2,3.2,0,0,1,1724.77,7111.97Zm0,11.28a3.185,3.185,0,1,1-3.21,3.19A3.2,3.2,0,0,1,1724.77,7123.25Zm0,11.28a3.205,3.205,0,1,1-3.21,3.2A3.2,3.2,0,0,1,1724.77,7134.53Zm0,11.31a3.19,3.19,0,1,1-3.21,3.19A3.2,3.2,0,0,1,1724.77,7145.84Zm0,11.29a3.2,3.2,0,1,1-3.21,3.2A3.2,3.2,0,0,1,1724.77,7157.13Zm0,11.31a3.2,3.2,0,1,1-3.21,3.2A3.2,3.2,0,0,1,1724.77,7168.44Zm0,11.28a3.185,3.185,0,1,1-3.21,3.19A3.2,3.2,0,0,1,1724.77,7179.72Zm0,11.28a3.205,3.205,0,1,1-3.21,3.2A3.2,3.2,0,0,1,1724.77,7191Zm0,11.31a3.19,3.19,0,1,1-3.21,3.19A3.2,3.2,0,0,1,1724.77,7202.31Zm0,11.28a3.205,3.205,0,1,1-3.21,3.21A3.212,3.212,0,0,1,1724.77,7213.59ZM1712.34,6999a3.205,3.205,0,1,1-3.18,3.2A3.194,3.194,0,0,1,1712.34,6999Zm0,11.31a3.19,3.19,0,1,1-3.18,3.19A3.192,3.192,0,0,1,1712.34,7010.31Zm0,11.28a3.205,3.205,0,1,1-3.18,3.21A3.2,3.2,0,0,1,1712.34,7021.59Zm0,11.32a3.185,3.185,0,1,1-3.18,3.18A3.184,3.184,0,0,1,1712.34,7032.91Zm0,11.25a3.2,3.2,0,1,1-3.18,3.2A3.194,3.194,0,0,1,1712.34,7044.16Zm0,11.31a3.2,3.2,0,1,1-3.18,3.2A3.194,3.194,0,0,1,1712.34,7055.47Zm0,11.31a3.19,3.19,0,1,1-3.18,3.19A3.192,3.192,0,0,1,1712.34,7066.78Zm0,11.28a3.205,3.205,0,1,1-3.18,3.21A3.2,3.2,0,0,1,1712.34,7078.06Zm0,11.31a3.19,3.19,0,1,1-3.18,3.19A3.192,3.192,0,0,1,1712.34,7089.37Zm0,11.29a3.185,3.185,0,1,1-3.18,3.18A3.184,3.184,0,0,1,1712.34,7100.66Zm0,11.31a3.185,3.185,0,1,1-3.18,3.19A3.192,3.192,0,0,1,1712.34,7111.97Zm0,11.28a3.185,3.185,0,1,1-3.18,3.19A3.192,3.192,0,0,1,1712.34,7123.25Zm0,11.28a3.205,3.205,0,1,1-3.18,3.2A3.194,3.194,0,0,1,1712.34,7134.53Zm0,11.31a3.19,3.19,0,1,1-3.18,3.19A3.192,3.192,0,0,1,1712.34,7145.84Zm0,11.29a3.2,3.2,0,1,1-3.18,3.2A3.194,3.194,0,0,1,1712.34,7157.13Zm0,11.31a3.2,3.2,0,1,1-3.18,3.2A3.194,3.194,0,0,1,1712.34,7168.44Zm0,11.28a3.185,3.185,0,1,1-3.18,3.19A3.192,3.192,0,0,1,1712.34,7179.72Zm0,11.28a3.205,3.205,0,1,1-3.18,3.2A3.194,3.194,0,0,1,1712.34,7191Zm0,11.31a3.19,3.19,0,1,1-3.18,3.19A3.192,3.192,0,0,1,1712.34,7202.31Zm0,11.28a3.205,3.205,0,1,1-3.18,3.21A3.2,3.2,0,0,1,1712.34,7213.59ZM1700.3,6999a3.205,3.205,0,1,1-3.21,3.2A3.2,3.2,0,0,1,1700.3,6999Zm0,11.31a3.19,3.19,0,1,1-3.21,3.19A3.194,3.194,0,0,1,1700.3,7010.31Zm0,11.28a3.205,3.205,0,1,1-3.21,3.21A3.205,3.205,0,0,1,1700.3,7021.59Zm0,11.32a3.185,3.185,0,1,1-3.21,3.18A3.186,3.186,0,0,1,1700.3,7032.91Zm0,11.25a3.2,3.2,0,1,1-3.21,3.2A3.2,3.2,0,0,1,1700.3,7044.16Zm0,11.31a3.2,3.2,0,1,1-3.21,3.2A3.2,3.2,0,0,1,1700.3,7055.47Zm0,11.31a3.19,3.19,0,1,1-3.21,3.19A3.194,3.194,0,0,1,1700.3,7066.78Zm0,11.28a3.205,3.205,0,1,1-3.21,3.21A3.205,3.205,0,0,1,1700.3,7078.06Zm0,11.31a3.19,3.19,0,1,1-3.21,3.19A3.194,3.194,0,0,1,1700.3,7089.37Zm0,11.29a3.185,3.185,0,1,1-3.21,3.18A3.186,3.186,0,0,1,1700.3,7100.66Zm0,11.31a3.185,3.185,0,1,1-3.21,3.19A3.194,3.194,0,0,1,1700.3,7111.97Zm0,11.28a3.185,3.185,0,1,1-3.21,3.19A3.194,3.194,0,0,1,1700.3,7123.25Zm0,11.28a3.205,3.205,0,1,1-3.21,3.2A3.2,3.2,0,0,1,1700.3,7134.53Zm0,11.31a3.19,3.19,0,1,1-3.21,3.19A3.194,3.194,0,0,1,1700.3,7145.84Zm0,11.29a3.2,3.2,0,1,1-3.21,3.2A3.2,3.2,0,0,1,1700.3,7157.13Zm0,11.31a3.2,3.2,0,1,1-3.21,3.2A3.2,3.2,0,0,1,1700.3,7168.44Zm0,11.28a3.185,3.185,0,1,1-3.21,3.19A3.194,3.194,0,0,1,1700.3,7179.72Zm0,11.28a3.205,3.205,0,1,1-3.21,3.2A3.2,3.2,0,0,1,1700.3,7191Zm0,11.31a3.19,3.19,0,1,1-3.21,3.19A3.194,3.194,0,0,1,1700.3,7202.31Zm0,11.28a3.205,3.205,0,1,1-3.21,3.21A3.205,3.205,0,0,1,1700.3,7213.59ZM1687.48,6999a3.205,3.205,0,1,1-3.2,3.2A3.205,3.205,0,0,1,1687.48,6999Zm0,11.31a3.19,3.19,0,1,1-3.2,3.19A3.2,3.2,0,0,1,1687.48,7010.31Zm0,11.28a3.205,3.205,0,1,1-3.2,3.21A3.214,3.214,0,0,1,1687.48,7021.59Zm0,11.32a3.185,3.185,0,1,1-3.2,3.18A3.195,3.195,0,0,1,1687.48,7032.91Zm0,11.25a3.2,3.2,0,1,1-3.2,3.2A3.205,3.205,0,0,1,1687.48,7044.16Zm0,11.31a3.2,3.2,0,1,1-3.2,3.2A3.205,3.205,0,0,1,1687.48,7055.47Zm0,11.31a3.19,3.19,0,1,1-3.2,3.19A3.2,3.2,0,0,1,1687.48,7066.78Zm0,11.28a3.205,3.205,0,1,1-3.2,3.21A3.214,3.214,0,0,1,1687.48,7078.06Zm0,11.31a3.19,3.19,0,1,1-3.2,3.19A3.2,3.2,0,0,1,1687.48,7089.37Zm0,11.29a3.185,3.185,0,1,1-3.2,3.18A3.195,3.195,0,0,1,1687.48,7100.66Zm0,11.31a3.185,3.185,0,1,1-3.2,3.19A3.2,3.2,0,0,1,1687.48,7111.97Zm0,11.28a3.185,3.185,0,1,1-3.2,3.19A3.2,3.2,0,0,1,1687.48,7123.25Zm0,11.28a3.205,3.205,0,1,1-3.2,3.2A3.205,3.205,0,0,1,1687.48,7134.53Zm0,11.31a3.19,3.19,0,1,1-3.2,3.19A3.2,3.2,0,0,1,1687.48,7145.84Zm0,11.29a3.2,3.2,0,1,1-3.2,3.2A3.205,3.205,0,0,1,1687.48,7157.13Zm0,11.31a3.2,3.2,0,1,1-3.2,3.2A3.205,3.205,0,0,1,1687.48,7168.44Zm0,11.28a3.185,3.185,0,1,1-3.2,3.19A3.2,3.2,0,0,1,1687.48,7179.72Zm0,11.28a3.205,3.205,0,1,1-3.2,3.2A3.205,3.205,0,0,1,1687.48,7191Zm0,11.31a3.19,3.19,0,1,1-3.2,3.19A3.2,3.2,0,0,1,1687.48,7202.31Zm0,11.28a3.205,3.205,0,1,1-3.2,3.21A3.214,3.214,0,0,1,1687.48,7213.59ZM1674.7,6999a3.205,3.205,0,1,1-3.2,3.2A3.205,3.205,0,0,1,1674.7,6999Zm0,11.31a3.19,3.19,0,1,1-3.2,3.19A3.2,3.2,0,0,1,1674.7,7010.31Zm0,11.28a3.205,3.205,0,1,1-3.2,3.21A3.214,3.214,0,0,1,1674.7,7021.59Zm0,11.32a3.185,3.185,0,1,1-3.2,3.18A3.195,3.195,0,0,1,1674.7,7032.91Zm0,11.25a3.2,3.2,0,1,1-3.2,3.2A3.205,3.205,0,0,1,1674.7,7044.16Zm0,11.31a3.2,3.2,0,1,1-3.2,3.2A3.205,3.205,0,0,1,1674.7,7055.47Zm0,11.31a3.19,3.19,0,1,1-3.2,3.19A3.2,3.2,0,0,1,1674.7,7066.78Zm0,11.28a3.205,3.205,0,1,1-3.2,3.21A3.214,3.214,0,0,1,1674.7,7078.06Zm0,11.31a3.19,3.19,0,1,1-3.2,3.19A3.2,3.2,0,0,1,1674.7,7089.37Zm0,11.29a3.185,3.185,0,1,1-3.2,3.18A3.195,3.195,0,0,1,1674.7,7100.66Zm0,11.31a3.185,3.185,0,1,1-3.2,3.19A3.2,3.2,0,0,1,1674.7,7111.97Zm0,11.28a3.185,3.185,0,1,1-3.2,3.19A3.2,3.2,0,0,1,1674.7,7123.25Zm0,11.28a3.205,3.205,0,1,1-3.2,3.2A3.205,3.205,0,0,1,1674.7,7134.53Zm0,11.31a3.19,3.19,0,1,1-3.2,3.19A3.2,3.2,0,0,1,1674.7,7145.84Zm0,11.29a3.2,3.2,0,1,1-3.2,3.2A3.205,3.205,0,0,1,1674.7,7157.13Zm0,11.31a3.2,3.2,0,1,1-3.2,3.2A3.205,3.205,0,0,1,1674.7,7168.44Zm0,11.28a3.185,3.185,0,1,1-3.2,3.19A3.2,3.2,0,0,1,1674.7,7179.72Zm0,11.28a3.205,3.205,0,1,1-3.2,3.2A3.205,3.205,0,0,1,1674.7,7191Zm0,11.31a3.19,3.19,0,1,1-3.2,3.19A3.2,3.2,0,0,1,1674.7,7202.31Zm0,11.28a3.205,3.205,0,1,1-3.2,3.21A3.214,3.214,0,0,1,1674.7,7213.59ZM1661.89,6999a3.205,3.205,0,1,1-3.2,3.2A3.2,3.2,0,0,1,1661.89,6999Zm0,11.31a3.19,3.19,0,1,1-3.2,3.19A3.194,3.194,0,0,1,1661.89,7010.31Zm0,11.28a3.205,3.205,0,1,1-3.2,3.21A3.205,3.205,0,0,1,1661.89,7021.59Zm0,11.32a3.185,3.185,0,1,1-3.2,3.18A3.186,3.186,0,0,1,1661.89,7032.91Zm0,11.25a3.2,3.2,0,1,1-3.2,3.2A3.2,3.2,0,0,1,1661.89,7044.16Zm0,11.31a3.2,3.2,0,1,1-3.2,3.2A3.2,3.2,0,0,1,1661.89,7055.47Zm0,11.31a3.19,3.19,0,1,1-3.2,3.19A3.194,3.194,0,0,1,1661.89,7066.78Zm0,11.28a3.205,3.205,0,1,1-3.2,3.21A3.205,3.205,0,0,1,1661.89,7078.06Zm0,11.31a3.19,3.19,0,1,1-3.2,3.19A3.194,3.194,0,0,1,1661.89,7089.37Zm0,11.29a3.185,3.185,0,1,1-3.2,3.18A3.186,3.186,0,0,1,1661.89,7100.66Zm0,11.31a3.185,3.185,0,1,1-3.2,3.19A3.194,3.194,0,0,1,1661.89,7111.97Zm0,11.28a3.185,3.185,0,1,1-3.2,3.19A3.194,3.194,0,0,1,1661.89,7123.25Zm0,11.28a3.205,3.205,0,1,1-3.2,3.2A3.2,3.2,0,0,1,1661.89,7134.53Zm0,11.31a3.19,3.19,0,1,1-3.2,3.19A3.194,3.194,0,0,1,1661.89,7145.84Zm0,11.29a3.2,3.2,0,1,1-3.2,3.2A3.2,3.2,0,0,1,1661.89,7157.13Zm0,11.31a3.2,3.2,0,1,1-3.2,3.2A3.2,3.2,0,0,1,1661.89,7168.44Zm0,11.28a3.185,3.185,0,1,1-3.2,3.19A3.194,3.194,0,0,1,1661.89,7179.72Zm0,11.28a3.205,3.205,0,1,1-3.2,3.2A3.2,3.2,0,0,1,1661.89,7191Zm0,11.31a3.19,3.19,0,1,1-3.2,3.19A3.194,3.194,0,0,1,1661.89,7202.31Zm0,11.28a3.205,3.205,0,1,1-3.2,3.21A3.205,3.205,0,0,1,1661.89,7213.59ZM1648.72,6999a3.205,3.205,0,1,1-3.22,3.2A3.207,3.207,0,0,1,1648.72,6999Zm0,11.31a3.19,3.19,0,1,1-3.22,3.19A3.205,3.205,0,0,1,1648.72,7010.31Zm0,11.28a3.205,3.205,0,1,1-3.22,3.21A3.216,3.216,0,0,1,1648.72,7021.59Zm0,11.32a3.185,3.185,0,1,1-3.22,3.18A3.2,3.2,0,0,1,1648.72,7032.91Zm0,11.25a3.2,3.2,0,1,1-3.22,3.2A3.207,3.207,0,0,1,1648.72,7044.16Zm0,11.31a3.2,3.2,0,1,1-3.22,3.2A3.207,3.207,0,0,1,1648.72,7055.47Zm0,11.31a3.19,3.19,0,1,1-3.22,3.19A3.205,3.205,0,0,1,1648.72,7066.78Zm0,11.28a3.205,3.205,0,1,1-3.22,3.21A3.216,3.216,0,0,1,1648.72,7078.06Zm0,11.31a3.19,3.19,0,1,1-3.22,3.19A3.205,3.205,0,0,1,1648.72,7089.37Zm0,11.29a3.185,3.185,0,1,1-3.22,3.18A3.2,3.2,0,0,1,1648.72,7100.66Zm0,11.31a3.185,3.185,0,1,1-3.22,3.19A3.205,3.205,0,0,1,1648.72,7111.97Zm0,11.28a3.185,3.185,0,1,1-3.22,3.19A3.205,3.205,0,0,1,1648.72,7123.25Zm0,11.28a3.205,3.205,0,1,1-3.22,3.2A3.207,3.207,0,0,1,1648.72,7134.53Zm0,11.31a3.19,3.19,0,1,1-3.22,3.19A3.205,3.205,0,0,1,1648.72,7145.84Zm0,11.29a3.2,3.2,0,1,1-3.22,3.2A3.207,3.207,0,0,1,1648.72,7157.13Zm0,11.31a3.2,3.2,0,1,1-3.22,3.2A3.207,3.207,0,0,1,1648.72,7168.44Zm0,11.28a3.185,3.185,0,1,1-3.22,3.19A3.205,3.205,0,0,1,1648.72,7179.72Zm0,11.28a3.205,3.205,0,1,1-3.22,3.2A3.207,3.207,0,0,1,1648.72,7191Zm0,11.31a3.19,3.19,0,1,1-3.22,3.19A3.205,3.205,0,0,1,1648.72,7202.31Zm0,11.28a3.205,3.205,0,1,1-3.22,3.21A3.216,3.216,0,0,1,1648.72,7213.59ZM1634.8,6999a3.205,3.205,0,1,1-3.21,3.2A3.2,3.2,0,0,1,1634.8,6999Zm0,11.31a3.19,3.19,0,1,1-3.21,3.19A3.194,3.194,0,0,1,1634.8,7010.31Zm0,11.28a3.205,3.205,0,1,1-3.21,3.21A3.205,3.205,0,0,1,1634.8,7021.59Zm0,11.32a3.185,3.185,0,1,1-3.21,3.18A3.186,3.186,0,0,1,1634.8,7032.91Zm0,11.25a3.2,3.2,0,1,1-3.21,3.2A3.2,3.2,0,0,1,1634.8,7044.16Zm0,11.31a3.2,3.2,0,1,1-3.21,3.2A3.2,3.2,0,0,1,1634.8,7055.47Zm0,11.31a3.19,3.19,0,1,1-3.21,3.19A3.194,3.194,0,0,1,1634.8,7066.78Zm0,11.28a3.205,3.205,0,1,1-3.21,3.21A3.205,3.205,0,0,1,1634.8,7078.06Zm0,11.31a3.19,3.19,0,1,1-3.21,3.19A3.194,3.194,0,0,1,1634.8,7089.37Zm0,11.29a3.185,3.185,0,1,1-3.21,3.18A3.186,3.186,0,0,1,1634.8,7100.66Zm0,11.31a3.185,3.185,0,1,1-3.21,3.19A3.194,3.194,0,0,1,1634.8,7111.97Zm0,11.28a3.185,3.185,0,1,1-3.21,3.19A3.194,3.194,0,0,1,1634.8,7123.25Zm0,11.28a3.205,3.205,0,1,1-3.21,3.2A3.2,3.2,0,0,1,1634.8,7134.53Zm0,11.31a3.19,3.19,0,1,1-3.21,3.19A3.194,3.194,0,0,1,1634.8,7145.84Zm0,11.29a3.2,3.2,0,1,1-3.21,3.2A3.2,3.2,0,0,1,1634.8,7157.13Zm0,11.31a3.2,3.2,0,1,1-3.21,3.2A3.2,3.2,0,0,1,1634.8,7168.44Zm0,11.28a3.185,3.185,0,1,1-3.21,3.19A3.194,3.194,0,0,1,1634.8,7179.72Zm0,11.28a3.205,3.205,0,1,1-3.21,3.2A3.2,3.2,0,0,1,1634.8,7191Zm0,11.31a3.19,3.19,0,1,1-3.21,3.19A3.194,3.194,0,0,1,1634.8,7202.31Zm0,11.28a3.205,3.205,0,1,1-3.21,3.21A3.205,3.205,0,0,1,1634.8,7213.59ZM1622.2,6999a3.205,3.205,0,1,1-3.2,3.2A3.205,3.205,0,0,1,1622.2,6999Zm0,11.31a3.19,3.19,0,1,1-3.2,3.19A3.2,3.2,0,0,1,1622.2,7010.31Zm0,11.28a3.205,3.205,0,1,1-3.2,3.21A3.214,3.214,0,0,1,1622.2,7021.59Zm0,11.32a3.185,3.185,0,1,1-3.2,3.18A3.195,3.195,0,0,1,1622.2,7032.91Zm0,11.25a3.2,3.2,0,1,1-3.2,3.2A3.205,3.205,0,0,1,1622.2,7044.16Zm0,11.31a3.2,3.2,0,1,1-3.2,3.2A3.205,3.205,0,0,1,1622.2,7055.47Zm0,11.31a3.19,3.19,0,1,1-3.2,3.19A3.2,3.2,0,0,1,1622.2,7066.78Zm0,11.28a3.205,3.205,0,1,1-3.2,3.21A3.214,3.214,0,0,1,1622.2,7078.06Zm0,11.31a3.19,3.19,0,1,1-3.2,3.19A3.2,3.2,0,0,1,1622.2,7089.37Zm0,11.29a3.185,3.185,0,1,1-3.2,3.18A3.195,3.195,0,0,1,1622.2,7100.66Zm0,11.31a3.185,3.185,0,1,1-3.2,3.19A3.2,3.2,0,0,1,1622.2,7111.97Zm0,11.28a3.185,3.185,0,1,1-3.2,3.19A3.2,3.2,0,0,1,1622.2,7123.25Zm0,11.28a3.205,3.205,0,1,1-3.2,3.2A3.205,3.205,0,0,1,1622.2,7134.53Zm0,11.31a3.19,3.19,0,1,1-3.2,3.19A3.2,3.2,0,0,1,1622.2,7145.84Zm0,11.29a3.2,3.2,0,1,1-3.2,3.2A3.205,3.205,0,0,1,1622.2,7157.13Zm0,11.31a3.2,3.2,0,1,1-3.2,3.2A3.205,3.205,0,0,1,1622.2,7168.44Zm0,11.28a3.185,3.185,0,1,1-3.2,3.19A3.2,3.2,0,0,1,1622.2,7179.72Zm0,11.28a3.205,3.205,0,1,1-3.2,3.2A3.205,3.205,0,0,1,1622.2,7191Zm0,11.31a3.19,3.19,0,1,1-3.2,3.19A3.2,3.2,0,0,1,1622.2,7202.31Zm0,11.28a3.205,3.205,0,1,1-3.2,3.21A3.214,3.214,0,0,1,1622.2,7213.59ZM1610.17,6999a3.205,3.205,0,1,1-3.2,3.2A3.205,3.205,0,0,1,1610.17,6999Zm0,11.31a3.19,3.19,0,1,1-3.2,3.19A3.2,3.2,0,0,1,1610.17,7010.31Zm0,11.28a3.205,3.205,0,1,1-3.2,3.21A3.214,3.214,0,0,1,1610.17,7021.59Zm0,11.32a3.185,3.185,0,1,1-3.2,3.18A3.195,3.195,0,0,1,1610.17,7032.91Zm0,11.25a3.2,3.2,0,1,1-3.2,3.2A3.205,3.205,0,0,1,1610.17,7044.16Zm0,11.31a3.2,3.2,0,1,1-3.2,3.2A3.205,3.205,0,0,1,1610.17,7055.47Zm0,11.31a3.19,3.19,0,1,1-3.2,3.19A3.2,3.2,0,0,1,1610.17,7066.78Zm0,11.28a3.205,3.205,0,1,1-3.2,3.21A3.214,3.214,0,0,1,1610.17,7078.06Zm0,11.31a3.19,3.19,0,1,1-3.2,3.19A3.2,3.2,0,0,1,1610.17,7089.37Zm0,11.29a3.185,3.185,0,1,1-3.2,3.18A3.195,3.195,0,0,1,1610.17,7100.66Zm0,11.31a3.185,3.185,0,1,1-3.2,3.19A3.2,3.2,0,0,1,1610.17,7111.97Zm0,11.28a3.185,3.185,0,1,1-3.2,3.19A3.2,3.2,0,0,1,1610.17,7123.25Zm0,11.28a3.205,3.205,0,1,1-3.2,3.2A3.205,3.205,0,0,1,1610.17,7134.53Zm0,11.31a3.19,3.19,0,1,1-3.2,3.19A3.2,3.2,0,0,1,1610.17,7145.84Zm0,11.29a3.2,3.2,0,1,1-3.2,3.2A3.205,3.205,0,0,1,1610.17,7157.13Zm0,11.31a3.2,3.2,0,1,1-3.2,3.2A3.205,3.205,0,0,1,1610.17,7168.44Zm0,11.28a3.185,3.185,0,1,1-3.2,3.19A3.2,3.2,0,0,1,1610.17,7179.72Zm0,11.28a3.205,3.205,0,1,1-3.2,3.2A3.205,3.205,0,0,1,1610.17,7191Zm0,11.31a3.19,3.19,0,1,1-3.2,3.19A3.2,3.2,0,0,1,1610.17,7202.31Zm0,11.28a3.205,3.205,0,1,1-3.2,3.21A3.214,3.214,0,0,1,1610.17,7213.59ZM1597.73,6999a3.205,3.205,0,1,1-3.2,3.2A3.205,3.205,0,0,1,1597.73,6999Zm0,11.31a3.19,3.19,0,1,1-3.2,3.19A3.2,3.2,0,0,1,1597.73,7010.31Zm0,11.28a3.205,3.205,0,1,1-3.2,3.21A3.214,3.214,0,0,1,1597.73,7021.59Zm0,11.32a3.185,3.185,0,1,1-3.2,3.18A3.195,3.195,0,0,1,1597.73,7032.91Zm0,11.25a3.2,3.2,0,1,1-3.2,3.2A3.205,3.205,0,0,1,1597.73,7044.16Zm0,11.31a3.2,3.2,0,1,1-3.2,3.2A3.205,3.205,0,0,1,1597.73,7055.47Zm0,11.31a3.19,3.19,0,1,1-3.2,3.19A3.2,3.2,0,0,1,1597.73,7066.78Zm0,11.28a3.205,3.205,0,1,1-3.2,3.21A3.214,3.214,0,0,1,1597.73,7078.06Zm0,11.31a3.19,3.19,0,1,1-3.2,3.19A3.2,3.2,0,0,1,1597.73,7089.37Zm0,11.29a3.185,3.185,0,1,1-3.2,3.18A3.195,3.195,0,0,1,1597.73,7100.66Zm0,11.31a3.185,3.185,0,1,1-3.2,3.19A3.2,3.2,0,0,1,1597.73,7111.97Zm0,11.28a3.185,3.185,0,1,1-3.2,3.19A3.2,3.2,0,0,1,1597.73,7123.25Zm0,11.28a3.205,3.205,0,1,1-3.2,3.2A3.205,3.205,0,0,1,1597.73,7134.53Zm0,11.31a3.19,3.19,0,1,1-3.2,3.19A3.2,3.2,0,0,1,1597.73,7145.84Zm0,11.29a3.2,3.2,0,1,1-3.2,3.2A3.205,3.205,0,0,1,1597.73,7157.13Zm0,11.31a3.2,3.2,0,1,1-3.2,3.2A3.205,3.205,0,0,1,1597.73,7168.44Zm0,11.28a3.185,3.185,0,1,1-3.2,3.19A3.2,3.2,0,0,1,1597.73,7179.72Zm0,11.28a3.205,3.205,0,1,1-3.2,3.2A3.205,3.205,0,0,1,1597.73,7191Zm0,11.31a3.19,3.19,0,1,1-3.2,3.19A3.2,3.2,0,0,1,1597.73,7202.31Zm0,11.28a3.205,3.205,0,1,1-3.2,3.21A3.214,3.214,0,0,1,1597.73,7213.59ZM1585.7,6999a3.205,3.205,0,1,1-3.2,3.2A3.205,3.205,0,0,1,1585.7,6999Zm0,11.31a3.19,3.19,0,1,1-3.2,3.19A3.2,3.2,0,0,1,1585.7,7010.31Zm0,11.28a3.205,3.205,0,1,1-3.2,3.21A3.214,3.214,0,0,1,1585.7,7021.59Zm0,11.32a3.185,3.185,0,1,1-3.2,3.18A3.195,3.195,0,0,1,1585.7,7032.91Zm0,11.25a3.2,3.2,0,1,1-3.2,3.2A3.205,3.205,0,0,1,1585.7,7044.16Zm0,11.31a3.2,3.2,0,1,1-3.2,3.2A3.205,3.205,0,0,1,1585.7,7055.47Zm0,11.31a3.19,3.19,0,1,1-3.2,3.19A3.2,3.2,0,0,1,1585.7,7066.78Zm0,11.28a3.205,3.205,0,1,1-3.2,3.21A3.214,3.214,0,0,1,1585.7,7078.06Zm0,11.31a3.19,3.19,0,1,1-3.2,3.19A3.2,3.2,0,0,1,1585.7,7089.37Zm0,11.29a3.185,3.185,0,1,1-3.2,3.18A3.195,3.195,0,0,1,1585.7,7100.66Zm0,11.31a3.185,3.185,0,1,1-3.2,3.19A3.2,3.2,0,0,1,1585.7,7111.97Zm0,11.28a3.185,3.185,0,1,1-3.2,3.19A3.2,3.2,0,0,1,1585.7,7123.25Zm0,11.28a3.205,3.205,0,1,1-3.2,3.2A3.205,3.205,0,0,1,1585.7,7134.53Zm0,11.31a3.19,3.19,0,1,1-3.2,3.19A3.2,3.2,0,0,1,1585.7,7145.84Zm0,11.29a3.2,3.2,0,1,1-3.2,3.2A3.205,3.205,0,0,1,1585.7,7157.13Zm0,11.31a3.2,3.2,0,1,1-3.2,3.2A3.205,3.205,0,0,1,1585.7,7168.44Zm0,11.28a3.185,3.185,0,1,1-3.2,3.19A3.2,3.2,0,0,1,1585.7,7179.72Zm0,11.28a3.205,3.205,0,1,1-3.2,3.2A3.205,3.205,0,0,1,1585.7,7191Zm0,11.31a3.19,3.19,0,1,1-3.2,3.19A3.2,3.2,0,0,1,1585.7,7202.31Zm0,11.28a3.205,3.205,0,1,1-3.2,3.21A3.214,3.214,0,0,1,1585.7,7213.59ZM1572.89,6999a3.205,3.205,0,1,1-3.2,3.2A3.2,3.2,0,0,1,1572.89,6999Zm0,11.31a3.19,3.19,0,1,1-3.2,3.19A3.194,3.194,0,0,1,1572.89,7010.31Zm0,11.28a3.205,3.205,0,1,1-3.2,3.21A3.205,3.205,0,0,1,1572.89,7021.59Zm0,11.32a3.185,3.185,0,1,1-3.2,3.18A3.186,3.186,0,0,1,1572.89,7032.91Zm0,11.25a3.2,3.2,0,1,1-3.2,3.2A3.2,3.2,0,0,1,1572.89,7044.16Zm0,11.31a3.2,3.2,0,1,1-3.2,3.2A3.2,3.2,0,0,1,1572.89,7055.47Zm0,11.31a3.19,3.19,0,1,1-3.2,3.19A3.194,3.194,0,0,1,1572.89,7066.78Zm0,11.28a3.205,3.205,0,1,1-3.2,3.21A3.205,3.205,0,0,1,1572.89,7078.06Zm0,11.31a3.19,3.19,0,1,1-3.2,3.19A3.194,3.194,0,0,1,1572.89,7089.37Zm0,11.29a3.185,3.185,0,1,1-3.2,3.18A3.186,3.186,0,0,1,1572.89,7100.66Zm0,11.31a3.185,3.185,0,1,1-3.2,3.19A3.194,3.194,0,0,1,1572.89,7111.97Zm0,11.28a3.185,3.185,0,1,1-3.2,3.19A3.194,3.194,0,0,1,1572.89,7123.25Zm0,11.28a3.205,3.205,0,1,1-3.2,3.2A3.2,3.2,0,0,1,1572.89,7134.53Zm0,11.31a3.19,3.19,0,1,1-3.2,3.19A3.194,3.194,0,0,1,1572.89,7145.84Zm0,11.29a3.2,3.2,0,1,1-3.2,3.2A3.2,3.2,0,0,1,1572.89,7157.13Zm0,11.31a3.2,3.2,0,1,1-3.2,3.2A3.2,3.2,0,0,1,1572.89,7168.44Zm0,11.28a3.185,3.185,0,1,1-3.2,3.19A3.194,3.194,0,0,1,1572.89,7179.72Zm0,11.28a3.205,3.205,0,1,1-3.2,3.2A3.2,3.2,0,0,1,1572.89,7191Zm0,11.31a3.19,3.19,0,1,1-3.2,3.19A3.194,3.194,0,0,1,1572.89,7202.31Zm0,11.28a3.205,3.205,0,1,1-3.2,3.21A3.205,3.205,0,0,1,1572.89,7213.59ZM1560.11,6999a3.205,3.205,0,1,1-3.2,3.2A3.2,3.2,0,0,1,1560.11,6999Zm0,11.31a3.19,3.19,0,1,1-3.2,3.19A3.194,3.194,0,0,1,1560.11,7010.31Zm0,11.28a3.205,3.205,0,1,1-3.2,3.21A3.205,3.205,0,0,1,1560.11,7021.59Zm0,11.32a3.185,3.185,0,1,1-3.2,3.18A3.186,3.186,0,0,1,1560.11,7032.91Zm0,11.25a3.2,3.2,0,1,1-3.2,3.2A3.2,3.2,0,0,1,1560.11,7044.16Zm0,11.31a3.2,3.2,0,1,1-3.2,3.2A3.2,3.2,0,0,1,1560.11,7055.47Zm0,11.31a3.19,3.19,0,1,1-3.2,3.19A3.194,3.194,0,0,1,1560.11,7066.78Zm0,11.28a3.205,3.205,0,1,1-3.2,3.21A3.205,3.205,0,0,1,1560.11,7078.06Zm0,11.31a3.19,3.19,0,1,1-3.2,3.19A3.194,3.194,0,0,1,1560.11,7089.37Zm0,11.29a3.185,3.185,0,1,1-3.2,3.18A3.186,3.186,0,0,1,1560.11,7100.66Zm0,11.31a3.185,3.185,0,1,1-3.2,3.19A3.194,3.194,0,0,1,1560.11,7111.97Zm0,11.28a3.185,3.185,0,1,1-3.2,3.19A3.194,3.194,0,0,1,1560.11,7123.25Zm0,11.28a3.205,3.205,0,1,1-3.2,3.2A3.2,3.2,0,0,1,1560.11,7134.53Zm0,11.31a3.19,3.19,0,1,1-3.2,3.19A3.194,3.194,0,0,1,1560.11,7145.84Zm0,11.29a3.2,3.2,0,1,1-3.2,3.2A3.2,3.2,0,0,1,1560.11,7157.13Zm0,11.31a3.2,3.2,0,1,1-3.2,3.2A3.2,3.2,0,0,1,1560.11,7168.44Zm0,11.28a3.185,3.185,0,1,1-3.2,3.19A3.194,3.194,0,0,1,1560.11,7179.72Zm0,11.28a3.205,3.205,0,1,1-3.2,3.2A3.2,3.2,0,0,1,1560.11,7191Zm0,11.31a3.19,3.19,0,1,1-3.2,3.19A3.194,3.194,0,0,1,1560.11,7202.31Zm0,11.28a3.205,3.205,0,1,1-3.2,3.21A3.205,3.205,0,0,1,1560.11,7213.59ZM1547.3,6999a3.205,3.205,0,1,1-3.21,3.2A3.2,3.2,0,0,1,1547.3,6999Zm0,11.31a3.19,3.19,0,1,1-3.21,3.19A3.194,3.194,0,0,1,1547.3,7010.31Zm0,11.28a3.205,3.205,0,1,1-3.21,3.21A3.205,3.205,0,0,1,1547.3,7021.59Zm0,11.32a3.185,3.185,0,1,1-3.21,3.18A3.186,3.186,0,0,1,1547.3,7032.91Zm0,11.25a3.2,3.2,0,1,1-3.21,3.2A3.2,3.2,0,0,1,1547.3,7044.16Zm0,11.31a3.2,3.2,0,1,1-3.21,3.2A3.2,3.2,0,0,1,1547.3,7055.47Zm0,11.31a3.19,3.19,0,1,1-3.21,3.19A3.194,3.194,0,0,1,1547.3,7066.78Zm0,11.28a3.205,3.205,0,1,1-3.21,3.21A3.205,3.205,0,0,1,1547.3,7078.06Zm0,11.31a3.19,3.19,0,1,1-3.21,3.19A3.194,3.194,0,0,1,1547.3,7089.37Zm0,11.29a3.185,3.185,0,1,1-3.21,3.18A3.186,3.186,0,0,1,1547.3,7100.66Zm0,11.31a3.185,3.185,0,1,1-3.21,3.19A3.194,3.194,0,0,1,1547.3,7111.97Zm0,11.28a3.185,3.185,0,1,1-3.21,3.19A3.194,3.194,0,0,1,1547.3,7123.25Zm0,11.28a3.205,3.205,0,1,1-3.21,3.2A3.2,3.2,0,0,1,1547.3,7134.53Zm0,11.31a3.19,3.19,0,1,1-3.21,3.19A3.194,3.194,0,0,1,1547.3,7145.84Zm0,11.29a3.2,3.2,0,1,1-3.21,3.2A3.2,3.2,0,0,1,1547.3,7157.13Zm0,11.31a3.2,3.2,0,1,1-3.21,3.2A3.2,3.2,0,0,1,1547.3,7168.44Zm0,11.28a3.185,3.185,0,1,1-3.21,3.19A3.194,3.194,0,0,1,1547.3,7179.72Zm0,11.28a3.205,3.205,0,1,1-3.21,3.2A3.2,3.2,0,0,1,1547.3,7191Zm0,11.31a3.19,3.19,0,1,1-3.21,3.19A3.194,3.194,0,0,1,1547.3,7202.31Zm0,11.28a3.205,3.205,0,1,1-3.21,3.21A3.205,3.205,0,0,1,1547.3,7213.59ZM1534.11,6999a3.205,3.205,0,1,1-3.2,3.2A3.2,3.2,0,0,1,1534.11,6999Zm0,11.31a3.19,3.19,0,1,1-3.2,3.19A3.194,3.194,0,0,1,1534.11,7010.31Zm0,11.28a3.205,3.205,0,1,1-3.2,3.21A3.205,3.205,0,0,1,1534.11,7021.59Zm0,11.32a3.185,3.185,0,1,1-3.2,3.18A3.186,3.186,0,0,1,1534.11,7032.91Zm0,11.25a3.2,3.2,0,1,1-3.2,3.2A3.2,3.2,0,0,1,1534.11,7044.16Zm0,11.31a3.2,3.2,0,1,1-3.2,3.2A3.2,3.2,0,0,1,1534.11,7055.47Zm0,11.31a3.19,3.19,0,1,1-3.2,3.19A3.194,3.194,0,0,1,1534.11,7066.78Zm0,11.28a3.205,3.205,0,1,1-3.2,3.21A3.205,3.205,0,0,1,1534.11,7078.06Zm0,11.31a3.19,3.19,0,1,1-3.2,3.19A3.194,3.194,0,0,1,1534.11,7089.37Zm0,11.29a3.185,3.185,0,1,1-3.2,3.18A3.186,3.186,0,0,1,1534.11,7100.66Zm0,11.31a3.185,3.185,0,1,1-3.2,3.19A3.194,3.194,0,0,1,1534.11,7111.97Zm0,11.28a3.185,3.185,0,1,1-3.2,3.19A3.194,3.194,0,0,1,1534.11,7123.25Zm0,11.28a3.205,3.205,0,1,1-3.2,3.2A3.2,3.2,0,0,1,1534.11,7134.53Zm0,11.31a3.19,3.19,0,1,1-3.2,3.19A3.194,3.194,0,0,1,1534.11,7145.84Zm0,11.29a3.2,3.2,0,1,1-3.2,3.2A3.2,3.2,0,0,1,1534.11,7157.13Zm0,11.31a3.2,3.2,0,1,1-3.2,3.2A3.2,3.2,0,0,1,1534.11,7168.44Zm0,11.28a3.185,3.185,0,1,1-3.2,3.19A3.194,3.194,0,0,1,1534.11,7179.72Zm0,11.28a3.205,3.205,0,1,1-3.2,3.2A3.2,3.2,0,0,1,1534.11,7191Zm0,11.31a3.19,3.19,0,1,1-3.2,3.19A3.194,3.194,0,0,1,1534.11,7202.31Zm0,11.28a3.205,3.205,0,1,1-3.2,3.21A3.205,3.205,0,0,1,1534.11,7213.59ZM1520.2,6999a3.205,3.205,0,1,1-3.2,3.2A3.205,3.205,0,0,1,1520.2,6999Zm0,11.31a3.19,3.19,0,1,1-3.2,3.19A3.2,3.2,0,0,1,1520.2,7010.31Zm0,11.28a3.205,3.205,0,1,1-3.2,3.21A3.214,3.214,0,0,1,1520.2,7021.59Zm0,11.32a3.185,3.185,0,1,1-3.2,3.18A3.195,3.195,0,0,1,1520.2,7032.91Zm0,11.25a3.2,3.2,0,1,1-3.2,3.2A3.205,3.205,0,0,1,1520.2,7044.16Zm0,11.31a3.2,3.2,0,1,1-3.2,3.2A3.205,3.205,0,0,1,1520.2,7055.47Zm0,11.31a3.19,3.19,0,1,1-3.2,3.19A3.2,3.2,0,0,1,1520.2,7066.78Zm0,11.28a3.205,3.205,0,1,1-3.2,3.21A3.214,3.214,0,0,1,1520.2,7078.06Zm0,11.31a3.19,3.19,0,1,1-3.2,3.19A3.2,3.2,0,0,1,1520.2,7089.37Zm0,11.29a3.185,3.185,0,1,1-3.2,3.18A3.195,3.195,0,0,1,1520.2,7100.66Zm0,11.31a3.185,3.185,0,1,1-3.2,3.19A3.2,3.2,0,0,1,1520.2,7111.97Zm0,11.28a3.185,3.185,0,1,1-3.2,3.19A3.2,3.2,0,0,1,1520.2,7123.25Zm0,11.28a3.205,3.205,0,1,1-3.2,3.2A3.205,3.205,0,0,1,1520.2,7134.53Zm0,11.31a3.19,3.19,0,1,1-3.2,3.19A3.2,3.2,0,0,1,1520.2,7145.84Zm0,11.29a3.2,3.2,0,1,1-3.2,3.2A3.205,3.205,0,0,1,1520.2,7157.13Zm0,11.31a3.2,3.2,0,1,1-3.2,3.2A3.205,3.205,0,0,1,1520.2,7168.44Zm0,11.28a3.185,3.185,0,1,1-3.2,3.19A3.2,3.2,0,0,1,1520.2,7179.72Zm0,11.28a3.205,3.205,0,1,1-3.2,3.2A3.205,3.205,0,0,1,1520.2,7191Zm0,11.31a3.19,3.19,0,1,1-3.2,3.19A3.2,3.2,0,0,1,1520.2,7202.31Zm0,11.28a3.205,3.205,0,1,1-3.2,3.21A3.214,3.214,0,0,1,1520.2,7213.59Z" transform="translate(-1517 -6999)"/>
</svg>
