<svg xmlns="http://www.w3.org/2000/svg" width="57.781" height="57.78" viewBox="0 0 57.781 57.78">
  <defs>
    <style>
      .cls-1, .cls-2, .cls-3 {
        fill: #fff;
      }

      .cls-1 {
        fill-rule: evenodd;
      }

      .cls-2 {
        font-size: 24px;
      }

      .cls-2, .cls-3 {
        text-anchor: middle;
        font-family: Roboto;
        font-weight: 500;
      }

      .cls-3 {
        font-size: 25.809px;
      }
    </style>
  </defs>
  <path id="Shape_20_copy_4" data-name="Shape 20 copy 4" class="cls-1" d="M967.266,1402.84a28.9,28.9,0,1,1-28.891,28.89A28.894,28.894,0,0,1,967.266,1402.84Zm0,2.95a25.945,25.945,0,1,1-25.942,25.94A25.944,25.944,0,0,1,967.266,1405.79Zm-1.562,3.32a1.982,1.982,0,0,1,1.511-.75,2.513,2.513,0,0,1,1.7.56s-0.251,4-1.7,4.73C967.215,1413.65,966.364,1413.56,965.7,1409.11Zm0,45.53a2.011,2.011,0,0,0,1.511.76,2.493,2.493,0,0,0,1.7-.57s-0.251-4-1.7-4.72C967.215,1450.11,966.364,1450.19,965.7,1454.64Zm24.371-24.37a1.989,1.989,0,0,1,.756,1.51,2.509,2.509,0,0,1-.567,1.7s-4-.25-4.724-1.7C985.54,1431.78,985.624,1430.93,990.075,1430.27Zm-45.53,0a1.989,1.989,0,0,0-.756,1.51,2.5,2.5,0,0,0,.567,1.7s4-.25,4.724-1.7C949.08,1431.78,949,1430.93,944.545,1430.27Zm39.981,16.59a2,2,0,0,1-.537,1.6,2.515,2.515,0,0,1-1.6.8s-2.644-3-2.132-4.54C980.253,1444.72,980.915,1444.17,984.526,1446.86Zm-32.152-32.24a2,2,0,0,0-1.6.53,2.524,2.524,0,0,0-.8,1.61s3,2.65,4.539,2.14C954.506,1418.9,955.05,1418.24,952.374,1414.62Zm0.038,34.66a2,2,0,0,1-1.605-.53,2.52,2.52,0,0,1-.807-1.6s2.993-2.66,4.535-2.15C954.535,1445,955.08,1445.65,952.412,1449.28Zm32.084-32.31a2,2,0,0,0-.54-1.6,2.489,2.489,0,0,0-1.606-.79s-2.638,3.01-2.122,4.55C980.228,1419.13,980.891,1419.67,984.5,1416.97Z" transform="translate(-938.375 -1402.84)"/>
  <text id="_24" data-name="24" class="cls-2" x="28.873" y="37.024">24</text>
  <text id="hrs." class="cls-3" transform="translate(31.233 45.309) scale(0.387)">hrs.</text>
</svg>
