<svg xmlns="http://www.w3.org/2000/svg" width="48" height="53" viewBox="0 0 48 53">
  <defs>
    <style>
      .cls-1, .cls-2 {
        fill-opacity: 0;
        stroke: #fff;
        stroke-linejoin: round;
        stroke-width: 2px;
        fill-rule: evenodd;
      }

      .cls-2 {
        fill: #f8f8f8;
      }
    </style>
  </defs>
  <path id="Shape_7_copy" data-name="Shape 7 copy" class="cls-1" d="M953.713,1843.01l-7.725,6.52,6.86,8.09,2.377-2,0.791,0.93-2.377,2.01,1.847,2.18,2.377-2.01,0.792,0.93-2.377,2.01,1.847,2.18,2.377-2.01,0.791,0.94-2.377,2,2.111,2.49,2.377-2,0.792,0.93-2.377,2.01,1.847,2.18,2.377-2.01,0.791,0.93-2.377,2.01,1.847,2.18,2.377-2.01,1.056,1.25-2.377,2,1.847,2.18,2.377-2,0.791,0.93L970,1877.86l1.847,2.18,2.377-2.01,1.056,1.25-2.377,2,1.847,2.18,2.377-2,0.791,0.93-2.377,2.01,1.847,2.18,2.377-2.01,1.056,1.24-2.378,2.01,1.847,2.18,7.726-6.52Zm-1.752,5.75a2.042,2.042,0,1,1-.166,2.81A2,2,0,0,1,951.961,1848.76Z" transform="translate(-943 -1840)"/>
  <path id="Shape_6_copy" data-name="Shape 6 copy" class="cls-2" d="M984,1843.35l-14.8,9.22-17.288,23.03,10.011,7.66,17.288-23.03Zm-34.107,34.94,10.011,7.65s-4.474,5.21-9.04,1.55C950.859,1887.49,946.271,1884.5,949.888,1878.29Zm30.212-28.25-1.43-1.1-8.335,5.11a3.166,3.166,0,0,0,4.221,2.62s-0.518,2.88,2.93,2.85Z" transform="translate(-943 -1840)"/>
</svg>
