<svg xmlns="http://www.w3.org/2000/svg" width="52.44" height="50.94" viewBox="0 0 52.44 50.94">
  <defs>
    <style>
      .cls-1 {
        fill: #ff7442;
        fill-opacity: 0;
        stroke: #fff;
        stroke-linejoin: round;
        stroke-width: 2px;
        fill-rule: evenodd;
      }
    </style>
  </defs>
  <path class="cls-1" d="M1541.73,1862.48s2.07-21.96-23.94-22.92c0,0-24.52-.98-25.47,20.37,0,0,.97,9.52,6.11,12.74,0,0-2.96,8.67-7.13,10.69,0,0,8.51.39,14.26-3.05a17.482,17.482,0,0,1-2.03-8.66s1.06-15.69,21.39-16.81A20.373,20.373,0,0,1,1541.73,1862.48Zm0,25.98s-6.75.48-11.21-3.06a20.985,20.985,0,0,1-6.11,1.53s-14.79.48-16.81-14.26c0,0-.55-12.34,16.81-13.76,0,0,14.79-.33,17.32,13.25a13.077,13.077,0,0,1-4.59,9.68S1539.28,1887.41,1541.73,1888.46Z" transform="translate(-1490.31 -1838.56)"/>
</svg>
