<svg xmlns="http://www.w3.org/2000/svg" width="55" height="52.28" viewBox="0 0 55 52.28">
  <defs>
    <style>
      .cls-1 {
        fill: #fff;
      }

      .cls-1, .cls-2 {
        fill-rule: evenodd;
      }

      .cls-2 {
        fill: #6d48e5;
        fill-opacity: 0;
        stroke: #fff;
        stroke-linejoin: round;
        stroke-width: 2px;
      }
    </style>
  </defs>
  <path class="cls-1" d="M1529.59,1447.56h20.53V1411s-0.65-4.59-5.25-4.94h-44.94a5.663,5.663,0,0,0-4.8,4.94v36.56h20.38v5.09h-5.39s-3.81.62-4.2,4.05v1.65h33.41v-1.2s-0.14-3.63-4.49-4.5h-5.25v-5.09Zm5.25,6.74a2.95,2.95,0,0,1,2.84,2.4h-30.26s0.48-2.38,2.55-2.4h24.87Zm-6.9-1.65v-5.09h-10.78v5.09h10.78Zm-31.31-6.74v-6.74h51.84v6.74h-51.84Zm0-8.39v-26.36a3.916,3.916,0,0,1,3.75-3.6h44.49s3.03-.03,3.6,3.74v26.22h-51.84Z" transform="translate(-1495.12 -1406.06)"/>
  <path class="cls-2" d="M1508.77,1438.65a4.065,4.065,0,0,1,2.36-4.4,24.475,24.475,0,0,1,5.16-2.42,9.674,9.674,0,0,0,2.04-.89s0.85-.23.89-2.23a1.886,1.886,0,0,0-.26-1.02,6.573,6.573,0,0,1-1.14-3.25,0.655,0.655,0,0,1-.77-0.76,3.04,3.04,0,0,0-.13-0.89s-0.83-1.33-.19-1.72c0,0-2.89.09-2.74-1.85,0,0-.2-0.76,1.85-3.19,0,0,.87-1.09,1.21-1.59,0,0,1.76-2.2,2.55-2.36a2.642,2.642,0,0,1-.51-1.14s0.33-.24,1.15.57a0.95,0.95,0,0,1,.38-0.83s0.29-.02,0,1.15a18.316,18.316,0,0,1,2.36-.26s6.62-.12,7.26,3.06a2.2,2.2,0,0,1-1.72,2.04,18.22,18.22,0,0,1-.38,4.2s0.64-.21.63,0.77a14.21,14.21,0,0,0-.44,1.4s0.16,1.41-.7,1.4h-0.13a6.673,6.673,0,0,1-1.27,3.51,2.089,2.089,0,0,0-.2.82,4.709,4.709,0,0,0,.51,2.11,19.133,19.133,0,0,0,3.25,1.33,37.779,37.779,0,0,1,4.65,2.23,9.15,9.15,0,0,1,.77.64,4.464,4.464,0,0,1,1.34,3.57h-27.78Z" transform="translate(-1495.12 -1406.06)"/>
</svg>
