<svg xmlns="http://www.w3.org/2000/svg" width="46.407" height="83.53" viewBox="0 0 46.407 83.53">
  <defs>
    <style>
      .cls-1 {
        fill: #364655;
        fill-rule: evenodd;
      }
    </style>
  </defs>
  <path class="cls-1" d="M639.45,1061.66a4.411,4.411,0,0,1,4.273,4.86v74.71s-0.915,3.72-3.358,3.95H600.377s-2.977-.76-3.053-3.65V1065.3a3.938,3.938,0,0,1,3.968-3.64H639.45Zm-37.852,1.82H640.06a2.378,2.378,0,0,1,1.832,2.13v5.77H598.85v-6.08S599,1063.33,601.6,1063.48Zm12.668,3.04h12.21a1.06,1.06,0,1,1,0,2.12h-12.21A1.06,1.06,0,1,1,614.266,1066.52Zm-14.793,6.37H642.2v61.66H599.473v-61.66Zm-0.623,62.87v5.77s0.84,1.79,2.137,1.82H640.06a2.033,2.033,0,0,0,1.832-2.12v-5.47H598.85Zm21.674,1.82a1.825,1.825,0,1,1-1.832,1.83A1.831,1.831,0,0,1,620.524,1137.58Z" transform="translate(-597.312 -1061.66)"/>
  <path class="cls-1" d="M608.762,1113.68a2.625,2.625,0,0,0,1.351-.87,3.34,3.34,0,0,0,.386-1.06,4.327,4.327,0,0,0-.1-0.97,1.872,1.872,0,0,1,1.737-2.03,2.214,2.214,0,0,1,1.738.87,4.422,4.422,0,0,1,.772,1.64,2.491,2.491,0,0,1-.772,1.74,5.938,5.938,0,0,1-3.668,1.55,3.844,3.844,0,0,1-1.641-.48S608.223,1113.75,608.762,1113.68Zm5.309-4.35a3.135,3.135,0,0,0,3.765-.39l5.406-5.99,4.73-5.51a51.445,51.445,0,0,0,3.379-4.64s0.567-1.04.193-1.36c0,0-.4-0.57-3.09,1.36,0,0-1.785,1.23-3.861,2.99,0,0-6.009,5.22-6.757,6,0,0-3.2,2.98-3.669,3.48a4.912,4.912,0,0,0-.868,2.32A2.228,2.228,0,0,0,614.071,1109.33Zm0.676-1.06s-0.954-1.54.965-3c0,0,4.4-4.16,4.827-4.45,0,0,5.1-4.4,6.274-5.32,0,0,2.824-2.54,3.283-2.51a2.248,2.248,0,0,1-.773,1.06s-2.787,3.56-4.054,4.84c0,0-3.8,4.51-4.73,5.41,0,0-2.317,2.79-2.993,3.48C617.546,1107.78,616.062,1109.41,614.747,1108.27Z" transform="translate(-597.312 -1061.66)"/>
</svg>
