<svg xmlns="http://www.w3.org/2000/svg" width="75.157" height="75.16" viewBox="0 0 75.157 75.16">
  <defs>
    <style>
      .cls-1 {
        fill: #364655;
        fill-rule: evenodd;
      }
    </style>
  </defs>
  <path class="cls-1" d="M384.89,1114.06v-8.36h-2.506s2.172-23.6,27.84-27.83v2.5h8.351v-2.5s24.109,2.28,27.84,27.83h-2.506v8.36h8.074v-8.36H448.92s-0.835-18.87-21.436-28.11h16.7s0.209,2.25,3.9,2.78c0,0,3.643.3,3.9-4.18a4.13,4.13,0,0,0-3.9-3.89,3.951,3.951,0,0,0-3.9,2.78H418.575v-2.78h-8.351v2.78H384.89a5.045,5.045,0,0,0-3.9-2.78,4.212,4.212,0,0,0-4.176,3.89s0.279,4.04,3.9,4.18c0,0,3.364.09,3.9-2.78h16.7s-18.207,6.23-21.436,28.11h-3.063v8.36h8.074Zm-5.568-5.57h3.062v2.78h-3.062v-2.78Zm67.093,0h3.062v2.78h-3.062v-2.78Zm-33.407-33.69h2.784v3.07h-2.784v-3.07Zm-32.155-.28a1.81,1.81,0,1,1-1.81,1.81A1.817,1.817,0,0,1,380.853,1074.52Zm67.093,0a1.81,1.81,0,1,1-1.81,1.81A1.817,1.817,0,0,1,447.946,1074.52ZM410.5,1139.39h7.8v8.07h-7.8v-8.07Zm2.506,2.51h2.784v3.06h-2.784v-3.06Zm-30.345-25.62-2.506.56s0.58,1.83.835,2.51c0,0,1.787-.44,2.227-0.56Zm-0.836,5.57,2.228-.83,1.113,2.5-2.227.84Zm2.228,5.01,1.948-1.11,1.392,1.95-1.948,1.67Zm3.062,4.46,1.67-1.4,1.949,1.68-1.67,1.94Zm3.619,3.89,1.67-1.67,1.949,1.67-1.392,1.95Zm4.176,3.62,1.392-2.22,2.227,1.39-1.114,2.23Zm4.733,2.51,1.113-1.95,2.506,0.84-0.835,2.22Zm5.289,1.95,0.835-2.23,2.227,0.56-0.556,2.23Zm15.869-1.67,2.227-.84,0.835,2.51-2.506.56Zm5.568,1.11,2.5-1.11-0.835-2.51-2.506,1.12Zm3.9-4.73,1.949-1.12,1.67,1.95-2.5,1.4Zm4.176-2.79,1.949-1.67,1.67,1.67-2.227,1.95Zm3.619-3.34,1.671-1.95,1.948,1.68-1.948,1.94Zm3.062-3.89,1.392-2.23,2.228,1.11-1.671,2.51Zm2.506-4.46,1.114-2.5,2.227,0.83-0.836,2.51Zm1.67-4.73,0.557-2.51,2.784,0.28-0.835,2.79Z" transform="translate(-376.812 -1072.31)"/>
  <path id="Rounded_Rectangle_1_copy" data-name="Rounded Rectangle 1 copy" class="cls-1" d="M409.125,1127.79v-2.6a14.64,14.64,0,0,0-3.174-7.01s-4.193-4.46-4.079-9.28c0,0-.023-11.44,12.692-12.33,0,0,11.786-.64,13.146,12.56a13.766,13.766,0,0,1-3.4,8.37,15.082,15.082,0,0,0-3.513,7.8l-0.113,2.49H409.125Zm1.246,1.02H419.1v1.58h-8.726v-1.58Zm0,2.04H419.1v1.58h-8.726v-1.58Zm1.247,2.15h6.346v1.47h-6.346V1133Zm0.793,2.03h4.76v1.47h-4.76v-1.47Zm-0.34-8.48h-1.586a13.953,13.953,0,0,0-2.154-7.35,28.58,28.58,0,0,0-2.606-3.62s-2.474-3.47-2.267-6.9c0,0,.935-10.1,11.446-10.64,0,0,9.548-.56,11.56,10.64a12.316,12.316,0,0,1-2.38,7.01s-4.9,5.15-4.987,9.73v1.13h-1.359v-9.96l2.833-5.88h-11.56l2.947,5.88Zm1.473,0h2.72v-10.07l2.154-4.41h-7.14l2.266,4.52v9.96Zm8.836-40a0.4,0.4,0,0,1,.251.5l-2.682,8.29a0.392,0.392,0,1,1-.746-0.24l2.683-8.29A0.4,0.4,0,0,1,422.38,1086.55Zm7.106,2.09a0.39,0.39,0,0,1,.129.54l-4.51,7.44a0.382,0.382,0,0,1-.539.13,0.391,0.391,0,0,1-.129-0.54l4.51-7.44A0.382,0.382,0,0,1,429.486,1088.64Zm5.089,5.33a0.4,0.4,0,0,1-.015.56l-6.264,6.01a0.392,0.392,0,1,1-.539-0.57l6.264-6.01A0.388,0.388,0,0,1,434.575,1093.97Zm3.825,5.99a0.391,0.391,0,0,1-.125.54l-7.317,4.63a0.389,0.389,0,0,1-.54-0.12,0.4,0.4,0,0,1,.125-0.55l7.317-4.63A0.392,0.392,0,0,1,438.4,1099.96Zm-33.35-13.33a0.393,0.393,0,0,0-.188.52l3.612,7.95a0.394,0.394,0,0,0,.517.19,0.4,0.4,0,0,0,.189-0.53l-3.612-7.94A0.387,0.387,0,0,0,405.05,1086.63Zm-6.762,2.93a0.406,0.406,0,0,0-.064.56l5.315,6.87a0.392,0.392,0,0,0,.547.07,0.406,0.406,0,0,0,.064-0.56l-5.315-6.87A0.392,0.392,0,0,0,398.288,1089.56Zm-4.4,5.93a0.408,0.408,0,0,0,.08.56l6.877,5.23a0.381,0.381,0,0,0,.544-0.08,0.409,0.409,0,0,0-.08-0.56l-6.876-5.23A0.39,0.39,0,0,0,393.893,1095.49Zm-3.073,6.43a0.4,0.4,0,0,0,.187.53l7.755,3.73a0.379,0.379,0,0,0,.518-0.19,0.405,0.405,0,0,0-.187-0.53l-7.755-3.73A0.379,0.379,0,0,0,390.82,1101.92Zm22.882-16.61a0.4,0.4,0,0,0-.382.42l0.412,8.85a0.4,0.4,0,0,0,.8-0.04l-0.412-8.85A0.4,0.4,0,0,0,413.7,1085.31Z" transform="translate(-376.812 -1072.31)"/>
</svg>
