<svg xmlns="http://www.w3.org/2000/svg" xmlns:xlink="http://www.w3.org/1999/xlink" width="136" height="83.53" viewBox="0 0 136 83.53">
  <defs>
    <style>
      .cls-1 {
        fill: #364655;
      }

      .cls-1, .cls-2, .cls-3, .cls-4 {
        fill-rule: evenodd;
      }

      .cls-2 {
        fill: #f8f8f8;
        filter: url(#filter);
      }

      .cls-2, .cls-3, .cls-4 {
        stroke: #364655;
        stroke-linejoin: round;
        stroke-width: 2px;
      }

      .cls-3, .cls-4 {
        fill: #f7f7f7;
      }

      .cls-3 {
        filter: url(#filter-2);
      }

      .cls-4 {
        filter: url(#filter-3);
      }
    </style>
    <filter id="filter" x="1248" y="1070" width="23" height="39" filterUnits="userSpaceOnUse">
      <feFlood result="flood" flood-color="#fff"/>
      <feComposite result="composite" operator="in" in2="SourceGraphic"/>
      <feBlend result="blend" in2="SourceGraphic"/>
    </filter>
    <filter id="filter-2" x="1241" y="1112" width="38" height="33" filterUnits="userSpaceOnUse">
      <feFlood result="flood" flood-color="#fff"/>
      <feComposite result="composite" operator="in" in2="SourceGraphic"/>
      <feBlend result="blend" in2="SourceGraphic"/>
    </filter>
    <filter id="filter-3" x="1346" y="1109" width="31" height="32" filterUnits="userSpaceOnUse">
      <feFlood result="flood" flood-color="#fff"/>
      <feComposite result="composite" operator="in" in2="SourceGraphic"/>
      <feBlend result="blend" in2="SourceGraphic"/>
    </filter>
  </defs>
  <path id="Shape_1_copy" data-name="Shape 1 copy" class="cls-1" d="M1329.45,1064.66a4.408,4.408,0,0,1,4.27,4.86v74.71s-0.91,3.72-3.35,3.95h-39.99s-2.98-.76-3.06-3.65V1068.3a3.94,3.94,0,0,1,3.97-3.64h38.16Zm-37.85,1.82h38.46a2.377,2.377,0,0,1,1.83,2.13v5.77h-43.04v-6.08S1289,1066.33,1291.6,1066.48Zm12.67,3.04h12.21a1.06,1.06,0,1,1,0,2.12h-12.21A1.06,1.06,0,1,1,1304.27,1069.52Zm-14.8,6.37h42.73v61.66h-42.73v-61.66Zm-0.62,62.87v5.77s0.84,1.79,2.14,1.82h39.07a2.033,2.033,0,0,0,1.83-2.12v-5.47h-43.04Zm21.67,1.82a1.825,1.825,0,1,1-1.83,1.83A1.833,1.833,0,0,1,1310.52,1140.58Z" transform="translate(-1241 -1064.66)"/>
  <g transform="translate(-1241 -1064.66)" style="fill: #f8f8f8; filter: url(#filter)">
    <path id="path-3" class="cls-2" d="M1267.01,1079.07V1073h-6.08s-4.74.11-6.07,6.07v3.84h-3.19v6.71h3.19v16.29h7.03v-16.29h4.8l0.64-6.71h-5.44v-2.88a1.316,1.316,0,0,1,1.28-.96h3.84Z" style="stroke: inherit; filter: none; fill: inherit"/>
  </g>
  <use transform="translate(-1241 -1064.66)" xlink:href="#path-3" style="stroke: #364655; filter: none; fill: none"/>
  <g transform="translate(-1241 -1064.66)" style="fill: #f7f7f7; filter: url(#filter-2)">
    <path id="path-2" class="cls-3" d="M1274.67,1116.21a29.964,29.964,0,0,1-4.15,1.6s-2.31-2.34-5.11-2.24c0,0-6.35.28-6.39,6.71a3.386,3.386,0,0,0,.32,1.28,17.207,17.207,0,0,1-13.1-6.71s-3.39,4.48,1.91,8.63c0,0-2.37-.34-2.87-0.96,0,0-1.21,4.76,5.11,6.39a23.521,23.521,0,0,1-2.88,0,5.977,5.977,0,0,0,6.08,4.47,13.373,13.373,0,0,1-9.59,2.56s3.14,3.01,9.91,3.2c0,0,17.85.29,18.21-19.18a8.9,8.9,0,0,0,3.19-3.19,32.866,32.866,0,0,1-3.83,1.28A14.239,14.239,0,0,0,1274.67,1116.21Z" style="stroke: inherit; filter: none; fill: inherit"/>
  </g>
  <use transform="translate(-1241 -1064.66)" xlink:href="#path-2" style="stroke: #364655; filter: none; fill: none"/>
  <path class="cls-1" d="M1347.1,1067.92h16.62s5.09,0.13,5.43,5.11v17.89s-1.12,4.6-5.11,4.8h-17.26a5.677,5.677,0,0,1-5.11-5.44v-17.25S1342.63,1068.35,1347.1,1067.92Zm-0.32,2.55h17.26s2.41,0.95,2.55,2.88v16.93s-0.45,2.85-3.19,2.88h-16.62s-2.48-.61-2.56-2.88v-16.93A3.106,3.106,0,0,1,1346.78,1070.47Zm8.78,4.16a7.185,7.185,0,1,1-7.18,7.18A7.183,7.183,0,0,1,1355.56,1074.63Zm0,2.53a4.655,4.655,0,1,1-4.65,4.65A4.656,4.656,0,0,1,1355.56,1077.16Zm7.52-4.78a1.92,1.92,0,1,1-1.92,1.92A1.92,1.92,0,0,1,1363.08,1072.38Z" transform="translate(-1241 -1064.66)"/>
  <g transform="translate(-1241 -1064.66)" style="fill: #f7f7f7; filter: url(#filter-3)">
    <path id="path" class="cls-4" d="M1352.53,1112.94a2.875,2.875,0,1,1-2.87,2.87A2.872,2.872,0,0,1,1352.53,1112.94Zm-2.87,7.98h5.75v16.3h-5.75v-16.3Zm8.62,0h4.48v2.56s0.98-2.46,5.11-2.56a5.64,5.64,0,0,1,5.75,5.43v10.87h-5.11v-9.59a2.579,2.579,0,0,0-2.56-2.55s-2.31-.21-2.87,2.87v9.27h-4.8v-16.3Z" style="stroke: inherit; filter: none; fill: inherit"/>
  </g>
  <use transform="translate(-1241 -1064.66)" xlink:href="#path" style="stroke: #364655; filter: none; fill: none"/>
  <path class="cls-1" d="M1311.5,1094.28a12.22,12.22,0,1,1-12.22,12.22A12.219,12.219,0,0,1,1311.5,1094.28Zm-1.93,2.07s-4.75,1.05-6.17,3.85a25.324,25.324,0,0,0,3.86.52S1308.53,1097.23,1309.57,1096.35Zm-0.25,4.62h3.85a14.462,14.462,0,0,0-1.8-3.6A7.262,7.262,0,0,0,1309.32,1100.97Zm3.59-4.62s2.08,2.93,2.32,4.37a18.835,18.835,0,0,0,4.11-.78A9.92,9.92,0,0,0,1312.91,1096.35Zm-10.54,5.39a8.667,8.667,0,0,0-1.28,3.86h5.14a19.405,19.405,0,0,1,.51-3.09A12.848,12.848,0,0,1,1302.37,1101.74Zm5.92,3.86h5.91a19.28,19.28,0,0,0-.26-2.83,14.975,14.975,0,0,1-5.4,0A17.773,17.773,0,0,0,1308.29,1105.6Zm7.97,0h5.39a11.494,11.494,0,0,0-1.02-3.86,28.568,28.568,0,0,1-4.89,1.03A23.63,23.63,0,0,1,1316.26,1105.6Zm-15.17,1.8a16.4,16.4,0,0,0,1.03,3.6,30.881,30.881,0,0,1,4.62-.77,21.242,21.242,0,0,1-.51-2.83h-5.14Zm7.45,2.57a37.972,37.972,0,0,1,5.4,0,9.761,9.761,0,0,0,.26-2.57h-5.91A8.41,8.41,0,0,0,1308.54,1109.97Zm7.2,0.26s0.45-2.06.52-2.83h5.39a17.45,17.45,0,0,1-1.28,3.85A14.865,14.865,0,0,0,1315.74,1110.23Zm-0.51,1.8s-0.79,3.17-2.06,4.37a8.164,8.164,0,0,0,6.17-3.6A40.352,40.352,0,0,1,1315.23,1112.03Zm-1.8-.26h-4.37a14.188,14.188,0,0,0,2.05,4.11S1312.17,1115.09,1313.43,1111.77Zm-6.17.26a35.621,35.621,0,0,0-3.86.77s2.52,3.41,5.92,3.6A10.463,10.463,0,0,1,1307.26,1112.03Z" transform="translate(-1241 -1064.66)"/>
</svg>
