<svg xmlns="http://www.w3.org/2000/svg" xmlns:xlink="http://www.w3.org/1999/xlink" width="92.06" height="85.88" viewBox="0 0 92.06 85.88">
  <defs>
    <style>
      .cls-1 {
        fill: #364655;
      }

      .cls-1, .cls-2 {
        fill-rule: evenodd;
      }

      .cls-2 {
        fill: #7d7d95;
        stroke: #364655;
        stroke-linejoin: round;
        stroke-width: 2px;
        filter: url(#filter);
      }
    </style>
    <filter id="filter" x="1491" y="1084" width="21" height="21" filterUnits="userSpaceOnUse">
      <feFlood result="flood" flood-color="#fff"/>
      <feComposite result="composite" operator="in" in2="SourceGraphic"/>
      <feBlend result="blend" in2="SourceGraphic"/>
    </filter>
  </defs>
  <path id="Rounded_Rectangle_2_copy_9" data-name="Rounded Rectangle 2 copy 9" class="cls-1" d="M1564.59,1071.55h3.06a1.907,1.907,0,0,0,1.37-1.71v-4.43a2.686,2.686,0,0,0-2.05-1.36h-88.28a2.031,2.031,0,0,0-1.71,1.36v5.12a1.345,1.345,0,0,0,1.37,1.02h3.06v53.17s0.8,4.94,5.8,5.12h35.11v10.91s-3.94.89-4.09,4.43a4.889,4.889,0,0,0,4.77,4.77,4.788,4.788,0,0,0,4.77-4.77s-0.15-4.08-4.09-4.43v-10.91h35.45s5.15-.57,5.46-5.46v-52.83Zm-1.37.68h-80.44v52.49a5.169,5.169,0,0,0,4.77,3.75h71.58s3.99-.76,4.09-4.43v-51.81Zm-7.16,6.14v6.81h-66.12v-6.81h66.12Zm-0.89.97v4.87h-64.34v-4.87h64.34Zm-40.29,8.57h40.42a0.414,0.414,0,0,1,.42.41v0.01a0.423,0.423,0,0,1-.42.42h-40.42a0.414,0.414,0,0,1-.41-0.42v-0.01A0.406,0.406,0,0,1,1514.88,1087.91Zm0,3.4h40.42a0.423,0.423,0,0,1,.42.42v0.01a0.423,0.423,0,0,1-.42.42h-40.42a0.414,0.414,0,0,1-.41-0.42v-0.01A0.414,0.414,0,0,1,1514.88,1091.31Zm0,3.41h40.42a0.414,0.414,0,0,1,.42.41v0.02a0.414,0.414,0,0,1-.42.41h-40.42a0.406,0.406,0,0,1-.41-0.41v-0.02A0.406,0.406,0,0,1,1514.88,1094.72Zm0,3.4h40.42a0.423,0.423,0,0,1,.42.42v0.01a0.423,0.423,0,0,1-.42.42h-40.42a0.414,0.414,0,0,1-.41-0.42v-0.01A0.414,0.414,0,0,1,1514.88,1098.12Zm0,3.41h40.42a0.423,0.423,0,0,1,.42.42v0.01a0.423,0.423,0,0,1-.42.42h-40.42a0.414,0.414,0,0,1-.41-0.42v-0.01A0.414,0.414,0,0,1,1514.88,1101.53Zm-23.85,3.44h64.28a0.405,0.405,0,1,1,0,.81h-64.28A0.405,0.405,0,1,1,1491.03,1104.97Zm0,3.4h64.28a0.412,0.412,0,0,1,.41.41,0.406,0.406,0,0,1-.41.41h-64.28a0.412,0.412,0,0,1-.41-0.41A0.419,0.419,0,0,1,1491.03,1108.37Zm0,3.41h64.28a0.405,0.405,0,1,1,0,.81h-64.28A0.405,0.405,0,1,1,1491.03,1111.78Zm0,3.41h64.28a0.405,0.405,0,1,1,0,.81h-64.28A0.405,0.405,0,1,1,1491.03,1115.19Zm0,3.4h64.28a0.41,0.41,0,0,1,0,.82h-64.28A0.41,0.41,0,1,1,1491.03,1118.59Z" transform="translate(-1476.97 -1064.06)"/>
  <g transform="translate(-1476.97 -1064.06)" style="fill: #7d7d95; filter: url(#filter)">
    <path id="path" class="cls-2" d="M1500.79,1095.41v-5.44s0.06-.53-0.59-0.44a6.4,6.4,0,0,0-5.59,6.18s0.03,6.01,6.33,6.18a6.423,6.423,0,0,0,6.03-5.74,0.566,0.566,0,0,0-.59-0.59h-5.44S1500.79,1095.69,1500.79,1095.41Zm1.47-1.47v-5.59a0.432,0.432,0,0,1,.44-0.44s5.25,0.35,5.74,5.59a0.512,0.512,0,0,1-.44.59h-5.3S1502.26,1094.16,1502.26,1093.94Z" style="stroke: inherit; filter: none; fill: inherit"/>
  </g>
  <use transform="translate(-1476.97 -1064.06)" xlink:href="#path" style="stroke: #364655; filter: none; fill: none"/>
</svg>
