<svg xmlns="http://www.w3.org/2000/svg" width="118" height="88" viewBox="0 0 118 88">
  <defs>
    <style>
      .cls-1, .cls-2 {
        fill: #364655;
        fill-rule: evenodd;
      }

      .cls-1 {
        fill-opacity: 0;
        stroke: #364655;
        stroke-linejoin: round;
        stroke-width: 2px;
      }
    </style>
  </defs>
  <path class="cls-1" d="M778.171,1067.44H881.908a3.793,3.793,0,0,1,3.811,3.8v73.13s-0.424,3.17-3.388,3.38l-103.736.43s-4.022-.64-4.234-3.81v-73.13A4.446,4.446,0,0,1,778.171,1067.44Zm2.541,12.68h98.655a2.445,2.445,0,0,1,2.117,2.54v58.75a2.328,2.328,0,0,1-2.117,2.54H780.712s-2.057-.3-2.117-2.11v-59.18A2.315,2.315,0,0,1,780.712,1080.12Zm1.694-8.88a3.805,3.805,0,1,1-3.811,3.81A3.813,3.813,0,0,1,782.406,1071.24Zm8.891,0a3.805,3.805,0,1,1-3.81,3.81A3.813,3.813,0,0,1,791.3,1071.24Zm9.316,0a3.805,3.805,0,1,1-3.811,3.81A3.813,3.813,0,0,1,800.613,1071.24Zm-13.567,42.86H811.18v5.07H787.046v-5.07Zm1.287,10.57h31.333a0.845,0.845,0,1,1,0,1.69H788.333A0.845,0.845,0,1,1,788.333,1124.67Zm0,6.59h7.622a0.845,0.845,0,1,1,0,1.69h-7.622A0.845,0.845,0,1,1,788.333,1131.26Zm10.586,0h23.287a0.845,0.845,0,1,1,0,1.69H798.919A0.845,0.845,0,1,1,798.919,1131.26Zm-10.586,5.24h31.333a0.84,0.84,0,0,1,.847.84,0.848,0.848,0,0,1-.847.85H788.333a0.848,0.848,0,0,1-.846-0.85A0.839,0.839,0,0,1,788.333,1136.5Zm40.648-7.93H842.53a0.84,0.84,0,0,1,.847.84,0.848,0.848,0,0,1-.847.85H828.981a0.849,0.849,0,0,1-.847-0.85A0.84,0.84,0,0,1,828.981,1128.57Zm16.937,0h13.549a0.84,0.84,0,0,1,.847.84,0.848,0.848,0,0,1-.847.85H845.918a0.848,0.848,0,0,1-.847-0.85A0.84,0.84,0,0,1,845.918,1128.57Zm16.936,0H876.4a0.839,0.839,0,0,1,.846.84,0.848,0.848,0,0,1-.846.85h-13.55a0.849,0.849,0,0,1-.847-0.85A0.84,0.84,0,0,1,862.854,1128.57Zm-31.756,7.09h9.739a0.845,0.845,0,1,1,0,1.69H831.1A0.845,0.845,0,1,1,831.1,1135.66Zm16.937,0h9.738a0.845,0.845,0,1,1,0,1.69h-9.738A0.845,0.845,0,1,1,848.035,1135.66Zm16.513,0h10.585a0.845,0.845,0,1,1,0,1.69H864.548A0.845,0.845,0,1,1,864.548,1135.66Z" transform="translate(-771 -1064)"/>
  <path class="cls-2" d="M829.405,1088.58H875.98a1.355,1.355,0,0,1,1.27,1.26v14.8s0.182,1.69-.846,1.69h-47a1.688,1.688,0,0,1-.847-1.27v-15.22S828.5,1088.64,829.405,1088.58Zm4.657,1.69h37.26l-18.63,6.34Zm-3.811.42,20.324,6.76-20.324,6.77v-13.53Zm3.811,13.95,18.63-6.77,19.054,6.77H834.062Zm21.171-7.19,20.324-6.76v13.95Zm-12.7,11.51a1.129,1.129,0,0,1,.847,1.27,3.754,3.754,0,0,1,0,1.26h0v10.99a0.975,0.975,0,0,1-.847.85H829.405a0.889,0.889,0,0,1-.847-0.85V1109.8a1.076,1.076,0,0,1,.847-0.84H842.53Zm-1.693,1.27H831.1l5.081,5.07Zm-3.811,5.91,4.658-4.65v9.3Zm-1.27.85,5.081,5.07H831.1Zm-5.928,3.8v-9.3l5.081,4.65Zm29.639-11.83a1.13,1.13,0,0,1,.847,1.27,3.806,3.806,0,0,1,0,1.26h0v10.99a0.975,0.975,0,0,1-.847.85H846.341a0.889,0.889,0,0,1-.847-0.85V1109.8a1.077,1.077,0,0,1,.847-0.84h13.126Zm-1.694,1.27h-9.738l5.081,5.07Zm-3.81,5.91,4.657-4.65v9.3Zm-1.271.85,5.081,5.07h-9.738Zm-5.928,3.8v-9.3l5.082,4.65Zm29.64-11.83a1.129,1.129,0,0,1,.846,1.27,3.754,3.754,0,0,1,0,1.26h0v10.99a0.974,0.974,0,0,1-.846.85H863.278a0.889,0.889,0,0,1-.847-0.85V1109.8a1.076,1.076,0,0,1,.847-0.84H876.4Zm-1.694,1.27h-9.739l5.081,5.07Zm-3.811,5.91,4.658-4.65v9.3Zm-1.27.85,5.081,5.07h-9.739Zm-5.928,3.8v-9.3l5.081,4.65Z" transform="translate(-771 -1064)"/>
</svg>
