<svg xmlns="http://www.w3.org/2000/svg" width="156" height="93" viewBox="0 0 156 93">
  <defs>
    <style>
      .cls-1 {
        fill: #272727;
      }

      .cls-1, .cls-2 {
        fill-opacity: 0;
      }

      .cls-1, .cls-2, .cls-3 {
        stroke: #364655;
        stroke-linejoin: round;
        stroke-width: 2px;
        fill-rule: evenodd;
      }

      .cls-3 {
        fill: #f8f8f8;
      }
    </style>
  </defs>
  <path class="cls-1" d="M1011.65,1064.66a6.9,6.9,0,0,0-5.42,6.01v63.73a9.018,9.018,0,0,0,3.61,6.01s-16.768-.07-18.648,6.62c0,0-.3,2.63,1.2,3h146.2a3.054,3.054,0,0,0,1.21-4.81s-3.84-3.38-19.26-5.41a6.515,6.515,0,0,0,3.61-5.41v-64.33s-0.97-5.04-5.41-5.41h-107.1Zm1.2,5.41h105.3V1135h-105.3v-64.93Z" transform="translate(-988 -1061)"/>
  <path class="cls-2" d="M1053.85,1083.6l-6.99,5.95,6.21,7.39,2.15-1.83,0.72,0.85-2.15,1.84,1.67,1.98,2.15-1.83,0.71,0.86-2.15,1.83,1.68,1.99,2.15-1.84,0.71,0.86-2.15,1.83,1.91,2.27,2.15-1.83,0.72,0.85-2.15,1.84,1.67,1.98,2.15-1.83,0.72,0.86-2.16,1.83,1.68,1.99,2.15-1.83,0.95,1.13-2.15,1.83,1.67,1.99,2.15-1.83,0.72,0.85-2.15,1.84,1.67,1.98,2.15-1.83,0.95,1.14-2.15,1.83,1.67,1.99,2.16-1.83,0.71,0.85-2.15,1.83,1.67,1.99,2.15-1.83,0.96,1.14-2.15,1.83,1.67,1.99,6.99-5.95Zm-1.58,5.25a1.8,1.8,0,0,1,2.54.28,1.822,1.822,0,0,1-.15,2.56,1.8,1.8,0,0,1-2.54-.27A1.833,1.833,0,0,1,1052.27,1088.85Z" transform="translate(-988 -1061)"/>
  <path class="cls-3" d="M1082.99,1081.35l-14.8,9.22-17.29,23.03,10.02,7.66,17.28-23.03Zm-34.1,34.94,10.01,7.65s-4.47,5.21-9.04,1.55C1049.86,1125.49,1045.27,1122.5,1048.89,1116.29Zm30.21-28.25-1.43-1.1-8.34,5.11s0.43,3.49,4.23,2.62c0,0-.52,2.88,2.93,2.85Z" transform="translate(-988 -1061)"/>
</svg>
